:FULLY-SPECIFIED
:DEGREES
63
root -0.47718900442123413 17.352699279785156 4.719740390777588 90.00000933466734 -0.0 -0.0
lhipjoint -5.528973971617621e-07 -1.7075472925031877e-06 5.635377011264426e-07
lfemur 5.029711604322839 29.249386950703748 -2.291179273117961
ltibia 21.327110296561198 -9.317875546872918 6.806026948937007
lfoot -8.030849341189075 16.78436001732218 3.6317703835939823
ltoes 17.836770932563375 -5.673965782689707 -7.29450030714834
rhipjoint -1.4590168159163821e-06 -1.2806604693773908e-06 -1.1362305144035093e-07
rfemur -28.200157196068485 -23.96129227828709 9.203020793337275
rtibia 44.770513726315826 21.716065664131328 -9.943415860687598
rfoot -8.92776246223847 0.009059287106196533 -2.9749168540859685
rtoes 6.478391739074782 2.351859314034589 2.4747034679084416
lowerback 8.347711208296076 5.281106108235267 -0.5014287329629658
upperback 0.6829768152883443 -1.101074092086834 -1.124415623245118
thorax -3.8651122706432437 -4.253140440033546 -0.4666944462691006
lowerneck -16.888064487037774 10.173320028150226 -3.3043381584161526
upperneck 22.43136917779196 -4.582876786839197 -3.051741968096626
head 10.083220441487649 -2.900723924226705 -1.7880037192747644
lclavicle -1.1905593500282093e-07 5.336085289072462e-08 1.7916324053945998e-07
lhumerus -82.1693408852203 -27.63748791979013 -11.802218546134362
lradius 3.943974570546471e-07 -2.2963702506806405e-06 27.57971647224287
lwrist -6.958336109906037e-07 -9.390482165297446 9.416580207655451e-07
lhand -23.498225943127736 -6.78227923496652 -15.19642641265884
lfingers -9.414104972780149e-07 5.958838404591767e-07 7.125023250159637
lthumb -45.189890756449195 -33.59562756487962 24.590665181999793
rclavicle -2.343282567121354e-08 -1.5207843073856516e-06 -8.563986979746117e-08
rhumerus -74.47240753972208 32.042432302334966 23.170356372399613
rradius -1.223047749210736e-06 2.7629693268925664e-06 -31.22169286600414
rwrist -2.067845386706928e-07 4.142755191536031 1.9270618231753762e-07
rhand 13.806828694887976 -3.072584717235743 12.304198176542572
rfingers -4.6239122781278693e-07 1.3831930793101032e-07 -7.125021115725521
rthumb -6.791781308762476 15.996354262588637 -11.73425474879815
64
root -0.9016150832176208 17.348499298095703 5.115660190582275 90.00000933466734 -0.0 -0.0
lhipjoint -5.528973971617621e-07 -1.7075472925031877e-06 5.635377011264426e-07
lfemur 7.651766158290551 28.011876201407915 -1.4684390182471432
ltibia 19.77040090168857 -8.547273114144568 6.4216495156580775
lfoot -9.321334183913883 16.698610407387253 3.9911954282875635
ltoes 15.301543023985335 -5.023925153435369 -6.173302556775945
rhipjoint -1.4590168159163821e-06 -1.2806604693773908e-06 -1.1362305144035093e-07
rfemur -27.531404836696076 -23.886701489908674 10.671177639394333
rtibia 34.30749378584045 16.082698098981353 -9.187100476155623
rfoot -9.522747924801097 2.5379589170289876 -3.190598646705927
rtoes 6.03016270922681 2.1994997783229957 2.2963401213661405
lowerback 7.9473758917950565 5.260651826105194 -0.6427368091540671
upperback 0.6101952799880405 -1.2704385576759378 -1.2825468822487838
thorax -3.7022997707371803 -4.428494447916222 -0.5472431339553254
lowerneck -17.2195318599112 9.81203973332334 -3.222473005128261
upperneck 22.48527132317441 -4.567969045201997 -2.9990547426127936
head 10.155647767446464 -2.8413339352895632 -1.7311639522189761
lclavicle -1.1905593500282093e-07 5.336085289072462e-08 1.7916324053945998e-07
lhumerus -82.23240402182702 -26.353596770935322 -10.250996354486196
lradius 1.0590600164451301e-07 -1.4834180314325703e-06 29.056615106663894
lwrist -6.563920358300861e-07 -8.890130681232637 8.904593343917168e-07
lhand -23.363379225891467 -6.790157431287306 -15.307025958341564
lfingers -9.414104972780149e-07 5.958838404591767e-07 7.125023250159637
lthumb -45.04539468946299 -33.56755548739087 24.41175520688048
rclavicle -2.343282567121354e-08 -1.5207843073856516e-06 -8.563986979746117e-08
rhumerus -73.53011464182713 31.314494646257106 25.61259296297522
rradius -2.6271763335450426e-07 2.997582917526285e-06 -29.698492379199596
rwrist -2.979627083349864e-07 6.032969490088862 2.722633176200122e-07
rhand 14.341655558788423 -3.192451335518293 12.288151500861273
rfingers -4.6239122781278693e-07 1.3831930793101032e-07 -7.125021115725521
rthumb -6.320979784368083 15.690631580244283 -11.594364790633474
65
root -1.3551199436187744 17.33169937133789 5.506410121917725 90.00000933466734 -0.0 -0.0
lhipjoint -5.528973971617621e-07 -1.7075472925031877e-06 5.635377011264426e-07
lfemur 10.470869535379014 27.34826526693323 0.28516592069630653
ltibia 18.13766808625912 -7.751588519236641 5.997374813002987
lfoot -9.380666329686491 17.282564260666664 4.080811779066362
ltoes 15.699037835565274 -5.129367906294734 -6.347539828729324
rhipjoint -1.4590168159163821e-06 -1.2806604693773908e-06 -1.1362305144035093e-07
rfemur -26.060141108340307 -22.839800829780383 11.697357213128097
rtibia 23.469281308972512 10.395898817728016 -7.301958019948348
rfoot -10.01020401171292 4.685117461638295 -3.401630574604988
rtoes 5.214595433644975 1.9182584149546695 1.9744015027151165
lowerback 7.138951713424586 5.840541716828447 -0.6989826699171816
upperback 0.6027503737927266 -1.2202924827284678 -1.36086866146132
thorax -3.23739035171898 -4.692158532898931 -0.5924419107878849
lowerneck -16.993826551240836 10.03753415990308 -3.352788105293638
upperneck 22.052184395829535 -4.97240332897867 -3.230254725027021
head 9.973816178909678 -2.987688880947069 -1.80205469905795
lclavicle -1.1905593500282093e-07 5.336085289072462e-08 1.7916324053945998e-07
lhumerus -82.64757707052624 -25.210605594468706 -8.240454186438427
lradius -1.7043476036047605e-06 -2.9727224808029688e-06 30.38872056086982
lwrist -6.265783304680457e-07 -8.509226399146659 8.515911241847361e-07
lhand -23.348386960663287 -7.372713657107803 -16.55573821787622
lfingers -9.414104972780149e-07 5.958838404591767e-07 7.125023250159637
lthumb -45.18006552932813 -33.83610486517743 23.18253801478433
rclavicle -2.343282567121354e-08 -1.5207843073856516e-06 -8.563986979746117e-08
rhumerus -72.90397754023373 31.10738282005481 26.8369521830242
rradius 2.488238509506237e-07 3.1019091821882806e-06 -28.501607595087
rwrist -2.8046940314256255e-07 5.667486921375127 2.572741521838356e-07
rhand 13.811871082042739 -3.143106633859536 12.572818417541773
rfingers -4.6239122781278693e-07 1.3831930793101032e-07 -7.125021115725521
rthumb -6.864941599396599 15.884634565882031 -11.521904167502454
66
root -1.8168401718139648 17.327800750732422 5.915380001068115 90.00000933466734 -0.0 -0.0
lhipjoint -5.528973971617621e-07 -1.7075472925031877e-06 5.635377011264426e-07
lfemur 14.023397771769803 26.289234190838997 2.504268582061077
ltibia 16.53823585812806 -6.985427417016093 5.561316326482332
lfoot -9.445611183409557 16.956137567400706 4.057747084012875
ltoes 11.253582747279443 -3.8761737620040795 -4.434371398810194
rhipjoint -1.4590168159163821e-06 -1.2806604693773908e-06 -1.1362305144035093e-07
rfemur -23.50030232063542 -21.51254822497975 12.494248190198178
rtibia 14.588867425607866 6.070572669677545 -5.003274503366659
rfoot -10.631053693115092 5.84304412738561 -3.635639685758795
rtoes -0.10116741462469338 -0.03922300497408622 -0.0367902370000518
lowerback 6.69561950232469 6.122476557840941 -0.9232849083216368
upperback 0.6329825519673484 -1.1858414354417466 -1.6537517621048152
thorax -2.920796996423726 -4.830011387143653 -0.7463901591725939
lowerneck -16.86883921207148 10.383656557414415 -3.336526278653484
upperneck 22.08661708698286 -5.355510773958801 -3.224923762379826
head 9.968738787035418 -3.184066637981868 -1.7877349940196068
lclavicle -1.1905593500282093e-07 5.336085289072462e-08 1.7916324053945998e-07
lhumerus -82.51867774050976 -24.31282333184743 -7.420813556790325
lradius -1.4643612673364888e-06 -3.5005200090849937e-07 31.068621496514986
lwrist -6.66176439807766e-07 -9.014630515649984 9.031836904503168e-07
lhand -21.858323136617063 -7.9148240639844225 -18.945431870714213
lfingers -9.414104972780149e-07 5.958838404591767e-07 7.125023250159637
lthumb -43.72853763257911 -33.69408132667077 20.09006741522351
rclavicle -2.343282567121354e-08 -1.5207843073856516e-06 -8.563986979746117e-08
rhumerus -72.66085695672712 31.45120088249491 27.05143378334094
rradius 5.201840945965998e-07 2.24122116272581e-06 -27.64150065592751
rwrist -2.5849841129182455e-07 5.21032827296101 2.3826130518679574e-07
rhand 12.709447814151416 -3.117511567161971 13.55722626185903
rfingers -4.6239122781278693e-07 1.3831930793101032e-07 -7.125021115725521
rthumb -8.104009204936373 16.144509603422676 -11.06214535144868
